@startuml
class KafkaController {
    
    +startup()
    +shutdown()
    +controlledShutdown(id: Int, controlledShutdownCallback: Try[Set[TopicPartition]] => Unit)
    
    -onControllerFailover()
    -onControllerResignation()
    -onBrokerLogDirFailure()

    -onBrokerStartup()
    -onBrokerFailure()
    -onBrokerUpdate()

    -onReplicasBecomeOffline()
    -onNewPartitionCreation()
    -onPartitionReassignment()
    -maybeTriggerPartitionReassignment()

    -fetchPendingPreferredReplicaElections()
    -onPreferredReplicaElection()

    -incrementControllerEpoch()
    -initializeControllerContext()
}

class TopicDeletionManager{
    +init(initialTopicsToBeDeleted: Set[String], initialTopicsIneligibleForDeletion: Set[String])
    +reset()

    +tryTopicDeletion()
    +enqueueTopicsForDeletion(topics: Set[String])
    +resumeDeletionForTopics(topics: Set[String] = Set.empty)
    +failReplicaDeletion(replicas: Set[PartitionAndReplica])
    +completeReplicaDeletion(replicas: Set[PartitionAndReplica])

    -resumeDeletions()

    -completeDeleteTopic(topic: String)

    -onTopicDeletion(topics: Set[String])
    -onPartitionDeletion(partitionsToBeDeleted: Set[TopicPartition])
    -startReplicaDeletion(replicasForTopicsToBeDeleted: Set[PartitionAndReplica])
}

class ReplicaStateMachine{
    -val controllerId

    +startup()
    +shutdown()

    -initializeReplicaState()
    +handleStateChanges(replicas: Seq[PartitionAndReplica], targetState: ReplicaState,
                         callbacks: Callbacks = new Callbacks())
    -doHandleStateChanges(replicaId: Int, partitions: Seq[TopicPartition], targetState: ReplicaState,
                                   callbacks: Callbacks)
    -removeReplicasFromIsr(replicaId: Int, partitions: Seq[TopicPartition])
    -doRemoveReplicasFromIsr(replicaId: Int, partitions: Seq[TopicPartition])
    -getTopicPartitionStatesFromZk(partitions: Seq[TopicPartition])
}

' class ZK_broker

' class SessionExpirationListener{
'     +handleNewSession()
' }

' class OfflinePartitionLeaderSelector{
'     +selectLeader()
' }

class PartitionStateMachine{
    -val controllerId

    +startup()
    +shutdown()

    -initializePartitionState()
    +triggerOnlinePartitionStateChange()

    +handleStateChanges(replicas: Seq[PartitionAndReplica], targetState: ReplicaState,
                         callbacks: Callbacks = new Callbacks())
    -doHandleStateChanges(replicaId: Int, partitions: Seq[TopicPartition], targetState: ReplicaState,
                                   callbacks: Callbacks)
    
    -initializeLeaderAndIsrForPartitions(partitions: Seq[TopicPartition])
    -electLeaderForPartitions(partitions: Seq[TopicPartition], partitionLeaderElectionStrategy: PartitionLeaderElectionStrategy)
    -doElectLeaderForPartitions(partitions: Seq[TopicPartition], partitionLeaderElectionStrategy: PartitionLeaderElectionStrategy)

    -leaderForOffline(leaderIsrAndControllerEpochs: Seq[(TopicPartition, LeaderIsrAndControllerEpoch)])
    -leaderForReassign(leaderIsrAndControllerEpochs: Seq[(TopicPartition, LeaderIsrAndControllerEpoch)])
    -leaderForPreferredReplica(leaderIsrAndControllerEpochs: Seq[(TopicPartition, LeaderIsrAndControllerEpoch)])
    -leaderForControlledShutdown(leaderIsrAndControllerEpochs: Seq[(TopicPartition, LeaderIsrAndControllerEpoch)], shuttingDownBrokers: Set[Int])

}

class ControllerChannelManager{
    -val brokerStateInfo
    -val brokerLock

    +startup()
    +shutdown()
    +sendRequest(brokerId: Int, apiKey: ApiKeys, request: AbstractRequest.Builder[_ <: AbstractRequest],
                  callback: AbstractResponse => Unit = null)
    
    +addBroker(broker: Broker)
    +removeBroker(brokerId: Int)

    -removeExistingBroker(brokerState: ControllerBrokerStateInfo)
    -startRequestSendThread(brokerId: Int)
}

class RequestSendThread{
    -val socketTimeoutMs

    +doWork()
    -brokerReady()
    +initiateShutdown()
}

class ControllerBrokerRequestBatch{
    +val controllerContext
    +val controllerId
    +val leaderAndIsrRequestMap
    +val stopReplicaRequestMap
    +val updateMetadataRequestBrokerSet
    +val updateMetadataRequestPartitionInfoMap

    +newBatch()
    +clear()

    +addLeaderAndIsrRequestForBrokers(brokerIds: Seq[Int], topicPartition: TopicPartition,
                                       leaderIsrAndControllerEpoch: LeaderIsrAndControllerEpoch,
                                       replicas: Seq[Int], isNew: Boolean)
    +addStopReplicaRequestForBrokers(brokerIds: Seq[Int], topicPartition: TopicPartition, deletePartition: Boolean,
                                      callback: (AbstractResponse, Int) => Unit)
    +addUpdateMetadataRequestForBrokers(brokerIds: Seq[Int],
                                         partitions: collection.Set[TopicPartition])
    
    +sendRequestsToBrokers(controllerEpoch: Int)
}

object PartitionLeaderElectionAlgorithms{
    +offlinePartitionLeaderElection(assignment: Seq[Int], isr: Seq[Int], liveReplicas: Set[Int], uncleanLeaderElectionEnabled: Boolean, controllerContext: ControllerContext)
    +reassignPartitionLeaderElection(reassignment: Seq[Int], isr: Seq[Int], liveReplicas: Set[Int])
    +preferredReplicaPartitionLeaderElection(assignment: Seq[Int], isr: Seq[Int], liveReplicas: Set[Int])
    +controlledShutdownPartitionLeaderElection(assignment: Seq[Int], isr: Seq[Int], liveReplicas: Set[Int], shuttingDownBrokers: Set[Int])
}

class ControllerContext{
    +val stats
    +var controllerChannelManager
    +var shuttingDownBrokerIds
    +var epoch
    +var epochZkVersion
    +var allTopics
    +var partitionReplicaAssignment
    +var partitionLeadershipInfo
    +val partitionsBeingReassigned
    +val replicasOnOfflineDirs

    -var liveBrokersUnderlying
    -var liveBrokerIdsUnderlying

    +partitionsOnBroker(brokerId: Int)
    +isReplicaOnline(brokerId: Int, topicPartition: TopicPartition, includeShuttingDownBrokers: Boolean = false)
    +replicasOnBrokers(brokerIds: Set[Int])
    +replicasForTopic(topic: String)
    +allLiveReplicas()
    +replicasForPartition(partitions: collection.Set[TopicPartition])
    +removeTopic(topic: String)
}

class ControllerEventManager{
    +start()
    +close()

    +put(event: ControllerEvent)
    +clearAndPut(event: ControllerEvent)

}

class ControllerEventThread{
    +name: String

    +doWork()
}

class PartitionModificationsListener{
    +handleDataChange()
}

class TopicChangeListener{
    +handleDataChange()
}

class BrokerChangeListener{
    +handleChildChange()
}

class PartitionsReassignedListener{
    +handleDataChange()
    +initiateReassignReplicasForTopicPartition()
}

class ReassignedPartitionsIsrChangeListener{
    +areReplicasInIsr()
    +onPartitionReassignment()

    +handleDataChange()
}

class ReassignedPartitionsLeaderSelector{
    +selectLeader()
}

class DeleteTopicListener

' 控制器网络通道管理器
class ControllerChannelManager{
    brokerStateInfo = newHashMap[Int,ControllerBrokerStateInfo]

    -addNewBroker()
    -removeExistingBroker()
}

' 控制器以批量方式发送请求给代理节点
class ControllerBrokerRequestBatch{
    +newBatch()
    +addLeaderAndIsrRequestForBrokers()
    +sendRequestsToBrokers()
}

PartitionModificationsListener --> ZK_broker
SessionExpirationListener --> ZK_broker
TopicChangeListener --> ZK_broker
BrokerChangeListener --> ZK_broker
PartitionsReassignedListener --> ZK_broker
ReassignedPartitionsIsrChangeListener --> ZK_broker
DeleteTopicListener --> ZK_broker

ZK_broker --> KafkaController
ReplicaStateMachine --> KafkaController
PartitionStateMachine --> KafkaController

ControllerBrokerRequestBatch --> ControllerChannelManager

ControllerChannelManager --> KafkaController

ReassignedPartitionsLeaderSelector --> KafkaController
OfflinePartitionLeaderSelector --> KafkaController
TopicDeletionManager --> KafkaController
@enduml