@startuml
class KafkaController {
    
    +startup()
    +shutdown()
    +controlledShutdown(id: Int, controlledShutdownCallback: Try[Set[TopicPartition]] => Unit)
    
    -onControllerFailover()
    -onControllerResignation()
    -onBrokerLogDirFailure()

    -onBrokerStartup()
    -onBrokerFailure()
    -onBrokerUpdate()

    -onReplicasBecomeOffline()
    -onNewPartitionCreation()
    -onPartitionReassignment()
    -maybeTriggerPartitionReassignment()

    -fetchPendingPreferredReplicaElections()
    -onPreferredReplicaElection()

    -incrementControllerEpoch()
    -initializeControllerContext()
}

class TopicDeletionManager{
    +init(initialTopicsToBeDeleted: Set[String], initialTopicsIneligibleForDeletion: Set[String])
    +reset()

    +tryTopicDeletion()
    +enqueueTopicsForDeletion(topics: Set[String])
    +resumeDeletionForTopics(topics: Set[String] = Set.empty)
    +failReplicaDeletion(replicas: Set[PartitionAndReplica])
    +completeReplicaDeletion(replicas: Set[PartitionAndReplica])

    -resumeDeletions()

    -completeDeleteTopic(topic: String)

    -onTopicDeletion(topics: Set[String])
    -onPartitionDeletion(partitionsToBeDeleted: Set[TopicPartition])
    -startReplicaDeletion(replicasForTopicsToBeDeleted: Set[PartitionAndReplica])
}

class ReplicaStateMachine{
    -val controllerId

    +startup()
    +shutdown()

    -initializeReplicaState()
    +handleStateChanges(replicas: Seq[PartitionAndReplica], targetState: ReplicaState,
                         callbacks: Callbacks = new Callbacks())
    -doHandleStateChanges(replicaId: Int, partitions: Seq[TopicPartition], targetState: ReplicaState,
                                   callbacks: Callbacks)
    -removeReplicasFromIsr(replicaId: Int, partitions: Seq[TopicPartition])
    -doRemoveReplicasFromIsr(replicaId: Int, partitions: Seq[TopicPartition])
    -getTopicPartitionStatesFromZk(partitions: Seq[TopicPartition])
}

' class ZK_broker

' class SessionExpirationListener{
'     +handleNewSession()
' }

' class OfflinePartitionLeaderSelector{
'     +selectLeader()
' }

class PartitionStateMachine{
    -val controllerId

    +startup()
    +shutdown()

    -initializePartitionState()
    +triggerOnlinePartitionStateChange()

    +handleStateChanges(replicas: Seq[PartitionAndReplica], targetState: ReplicaState,
                         callbacks: Callbacks = new Callbacks())
    -doHandleStateChanges(replicaId: Int, partitions: Seq[TopicPartition], targetState: ReplicaState,
                                   callbacks: Callbacks)
    
    -initializeLeaderAndIsrForPartitions(partitions: Seq[TopicPartition])
    -electLeaderForPartitions(partitions: Seq[TopicPartition], partitionLeaderElectionStrategy: PartitionLeaderElectionStrategy)
    -doElectLeaderForPartitions(partitions: Seq[TopicPartition], partitionLeaderElectionStrategy: PartitionLeaderElectionStrategy)

    -leaderForOffline(leaderIsrAndControllerEpochs: Seq[(TopicPartition, LeaderIsrAndControllerEpoch)])
    -leaderForReassign(leaderIsrAndControllerEpochs: Seq[(TopicPartition, LeaderIsrAndControllerEpoch)])
    -leaderForPreferredReplica(leaderIsrAndControllerEpochs: Seq[(TopicPartition, LeaderIsrAndControllerEpoch)])
    -leaderForControlledShutdown(leaderIsrAndControllerEpochs: Seq[(TopicPartition, LeaderIsrAndControllerEpoch)], shuttingDownBrokers: Set[Int])

}

object PartitionLeaderElectionAlgorithms{
    +offlinePartitionLeaderElection(assignment: Seq[Int], isr: Seq[Int], liveReplicas: Set[Int], uncleanLeaderElectionEnabled: Boolean, controllerContext: ControllerContext)
    +reassignPartitionLeaderElection(reassignment: Seq[Int], isr: Seq[Int], liveReplicas: Set[Int])
    +preferredReplicaPartitionLeaderElection(assignment: Seq[Int], isr: Seq[Int], liveReplicas: Set[Int])
    +controlledShutdownPartitionLeaderElection(assignment: Seq[Int], isr: Seq[Int], liveReplicas: Set[Int], shuttingDownBrokers: Set[Int])
}

class PartitionModificationsListener{
    +handleDataChange()
}

class TopicChangeListener{
    +handleDataChange()
}

class BrokerChangeListener{
    +handleChildChange()
}

class PartitionsReassignedListener{
    +handleDataChange()
    +initiateReassignReplicasForTopicPartition()
}

class ReassignedPartitionsIsrChangeListener{
    +areReplicasInIsr()
    +onPartitionReassignment()

    +handleDataChange()
}

class ReassignedPartitionsLeaderSelector{
    +selectLeader()
}

class DeleteTopicListener

' 控制器网络通道管理器
class ControllerChannelManager{
    brokerStateInfo = newHashMap[Int,ControllerBrokerStateInfo]

    -addNewBroker()
    -removeExistingBroker()
}

' 控制器以批量方式发送请求给代理节点
class ControllerBrokerRequestBatch{
    +newBatch()
    +addLeaderAndIsrRequestForBrokers()
    +sendRequestsToBrokers()
}

PartitionModificationsListener --> ZK_broker
SessionExpirationListener --> ZK_broker
TopicChangeListener --> ZK_broker
BrokerChangeListener --> ZK_broker
PartitionsReassignedListener --> ZK_broker
ReassignedPartitionsIsrChangeListener --> ZK_broker
DeleteTopicListener --> ZK_broker

ZK_broker --> KafkaController
ReplicaStateMachine --> KafkaController
PartitionStateMachine --> KafkaController

ControllerBrokerRequestBatch --> ControllerChannelManager

ControllerChannelManager --> KafkaController

ReassignedPartitionsLeaderSelector --> KafkaController
OfflinePartitionLeaderSelector --> KafkaController
TopicDeletionManager --> KafkaController
@enduml